#!OML:ASF F:\VICON\USERDATA\INSTALL\rory3\rory3.ASF
:FULLY-SPECIFIED
:DEGREES
45
root 0.43816029622882546 17.892006712620116 13.454776588975108 -3.0773168111607103 -3.235166438834132 -4.493993084451639
lfemur -7.408165172668476 -0.9553550198874932 -15.445266872534091
ltibia 56.463043757189524
lfoot -7.667642599145126 -2.1784349435186274
ltoes -3.81576430118835
rfemur -9.67343090874131 6.949379297422496 29.1897801142023
rtibia 25.702926116436153
rfoot -8.984884623840568 -5.956852298260139
rtoes 6.908698195681939
lowerback 10.427353761464003 0.849459428837603 2.837505947089737
upperback 0.3875992960616781 1.692711450652379 2.141586574391425
thorax -5.583832601701855 0.8727154719643876 0.5563457372926822
lowerneck -15.988191090008828 -2.658634881080517 -1.5129456087930828
upperneck 24.026792508663547 -3.134535119361699 -0.4054959284423384
head 10.607682417721321 -1.6434625995715972 -0.28111545391747345
lclavicle -2.702606454397998e-15 -2.323048147695222e-15
lhumerus -24.517411248559476 -0.9334684137974323 80.62748974626682
lradius 31.233858215742032
lwrist 5.190506099957096
lhand -27.492631815789622 22.86737561658667
lfingers 7.125020000000001
lthumb -1.0064282675331275 52.84933203561556
rclavicle -2.702606454382957e-15 -2.3230481476839794e-15
rhumerus -33.78100335493772 -23.228204892674285 -76.29324071388692
rradius 26.43349238836933
rwrist -1.5625308166644603
rhand -17.950509286867955 22.22473471196132
rfingers 7.125020000000001
rthumb 8.440696772140155 -7.262210837466923
46
root 0.442002625073377 17.88776341024574 13.50948474730294 -3.023115152476683 -2.9688951653231777 -5.289806623278562
lfemur -8.870924919486006 -0.7363239626507674 -14.409630678928316
ltibia 58.044861752800166
lfoot -7.96300574440265 -1.838556921668125
ltoes -3.1290804195980892
rfemur -8.617766649694447 7.06780444459088 29.845633643087723
rtibia 26.18969869033372
rfoot -9.620725163118937 -6.489152452608517
rtoes 6.8115994343346316
lowerback 10.431761736300412 0.9420934388209039 3.455760392311272
upperback 0.36396890648516644 1.8471745875746435 2.175311276110218
thorax -5.567525518105237 0.9575427611403216 0.31044172563675976
lowerneck -15.994405799886676 -2.689432726994708 -1.4930971814465859
upperneck 23.947577696076596 -3.203937218840162 -0.4643165165057342
head 10.595537357019097 -1.672543293410558 -0.3220051331195046
lclavicle -2.7026064543946603e-15 -2.32304814769304e-15
lhumerus -24.676637145144145 -1.4855746091522715 80.89989125906311
lradius 30.734177703818965
lwrist 5.50653818272713
lhand -27.342585164160266 22.984202816285638
lfingers 7.125020000000001
lthumb -0.82627483189031 53.013404634869
rclavicle -2.7026064543797642e-15 -2.3230481476819284e-15
rhumerus -33.96686160688226 -23.944717609913386 -76.239725239187
rradius 26.921397319909612
rwrist 0.3002690888543791
rhand -17.945755964911193 22.037888018126004
rfingers 7.125020000000001
rthumb 8.4845923800112 -7.57515521803991
47
root 0.42821877465592545 17.872606891341444 13.279126641207377 -3.218162912905174 -2.862611044847272 -5.403435213567658
lfemur -9.596745938813799 -0.5864729709557217 -14.264325142387616
ltibia 58.974499405366544
lfoot -8.397999032533518 -1.7300171742134238
ltoes -3.2979987782984255
rfemur -7.76543632179717 7.167711116489729 29.93472532486988
rtibia 26.75298387367257
rfoot -9.8423982364296 -7.04049023181977
rtoes 6.929430862882296
lowerback 10.538947744929008 1.0728539339235221 3.54401711151419
upperback 0.39121704412355524 1.945967612431684 2.114054704562712
thorax -5.533361113516185 0.9970889495713008 0.12936695729554615
lowerneck -16.05415042726042 -2.7271223990250566 -1.4669035167498155
upperneck 23.60725316102384 -3.252734879878504 -0.4353836958893898
head 10.464068079968479 -1.6944892871034294 -0.32589954965497625
lclavicle -2.7026064543889387e-15 -2.3230481476892032e-15
lhumerus -24.74182591097961 -2.0365174569038613 81.18342131565821
lradius 30.014956455590493
lwrist 5.564545133607293
lhand -27.354897570547948 22.73026779143109
lfingers 7.125020000000001
lthumb -0.7850082229355376 52.779251003769026
rclavicle -2.702606454379888e-15 -2.3230481476822143e-15
rhumerus -33.929299171924214 -24.54529701040897 -75.88516025193064
rradius 27.28227098965861
rwrist 2.1352435002827614
rhand -17.809463941799354 22.10077733199764
rfingers 7.125020000000001
rthumb 8.639917268715637 -7.582561889883399
48
root 0.4167609296583557 17.851158050616007 13.455532559776668 -3.4223323688962584 -2.693891839505381 -5.294785196656582
lfemur -10.504194918423497 -0.5268328299156693 -14.43481967459169
ltibia 59.13610128132777
lfoot -8.606909822467829 -1.6171054589799758
ltoes -6.028729373460506
rfemur -6.9702762238205285 7.146953814675652 29.83606683593152
rtibia 27.29345304000484
rfoot -9.785667298291548 -7.450882960914395
rtoes 7.288084293738013
lowerback 10.602362073339272 1.1830511661672931 3.529248906174634
upperback 0.4600117490444724 2.073900246643668 2.052972151602861
thorax -5.44988917030341 1.0582104270309378 -0.0020685732607650387
lowerneck -16.086891294462397 -2.7705101368286993 -1.4641865523745503
upperneck 23.311584553966746 -3.3365108855293566 -0.4301839532303806
head 10.311711992269046 -1.7316592885885034 -0.3383653487283468
lclavicle -2.7026064543886054e-15 -2.3230481476891007e-15
lhumerus -24.895999852754958 -2.418985592658599 81.41727704452579
lradius 29.031307925907218
lwrist 5.4863887978111325
lhand -27.288286323513468 22.558056028375745
lfingers 7.125020000000001
lthumb -0.662671649837962 52.69552069815252
rclavicle -2.7026064543796632e-15 -2.323048147682149e-15
rhumerus -34.133576036110384 -25.318155832918038 -75.26002842354673
rradius 27.62307414071858
rwrist 3.604254954751316
rhand -17.883126731680157 21.94281242331841
rfingers 7.125020000000001
rthumb 8.608088772856084 -7.657443541629711
